<mxfile host="app.diagrams.net" modified="2023-08-17T10:18:08.274Z" agent="Mozilla/5.0 (Windows NT 10.0; Win64; x64) AppleWebKit/537.36 (KHTML, like Gecko) Chrome/115.0.0.0 Safari/537.36 Edg/115.0.1901.183" etag="tnGd8FSm_5zEogsACUTX" version="21.6.8" type="github">
  <diagram name="Pagina-1" id="CPfUUHada2t1rKgDC3Gm">
    <mxGraphModel dx="1509" dy="972" grid="0" gridSize="10" guides="1" tooltips="1" connect="1" arrows="1" fold="1" page="0" pageScale="1" pageWidth="827" pageHeight="1169" math="0" shadow="0">
      <root>
        <mxCell id="0" />
        <mxCell id="1" parent="0" />
      </root>
    </mxGraphModel>
  </diagram>
</mxfile>
